HIERARCHY
ROOT SimulationBone
{
	OFFSET 0.000000 0.000000 0.000000
	CHANNELS 6 Xposition Yposition Zposition Zrotation Yrotation Xrotation 
	JOINT Hips
	{
		OFFSET 0.000000 0.000000 0.000000
		CHANNELS 6 Xposition Yposition Zposition Zrotation Yrotation Xrotation 
		JOINT LeftUpLeg
		{
			OFFSET 0.103457 1.857824 10.548509
			CHANNELS 3 Zrotation Yrotation Xrotation
			JOINT LeftLeg
			{
				OFFSET 43.500000 -0.000023 0.000006
				CHANNELS 3 Zrotation Yrotation Xrotation
				JOINT LeftFoot
				{
					OFFSET 42.372192 0.000011 -0.000009
					CHANNELS 3 Zrotation Yrotation Xrotation
					JOINT LeftToe
					{
						OFFSET 17.300005 0.000002 -0.000010
						CHANNELS 3 Zrotation Yrotation Xrotation
						End Site
						{
							OFFSET 0.000000 0.000000 0.000000
						}
					}
				}
			}
		}
		JOINT RightUpLeg
		{
			OFFSET 0.103458 1.857836 -10.548506
			CHANNELS 3 Zrotation Yrotation Xrotation
			JOINT RightLeg
			{
				OFFSET 43.500038 -0.000023 0.000017
				CHANNELS 3 Zrotation Yrotation Xrotation
				JOINT RightFoot
				{
					OFFSET 42.372269 -0.000019 0.000007
					CHANNELS 3 Zrotation Yrotation Xrotation
					JOINT RightToe
					{
						OFFSET 17.299999 -0.000003 0.000008
						CHANNELS 3 Zrotation Yrotation Xrotation
						End Site
						{
							OFFSET 0.000000 0.000000 0.000000
						}
					}
				}
			}
		}
		JOINT Spine
		{
			OFFSET 6.901969 -2.603729 0.000003
			CHANNELS 3 Zrotation Yrotation Xrotation
			JOINT Spine1
			{
				OFFSET 12.588093 -0.000007 0.000001
				CHANNELS 3 Zrotation Yrotation Xrotation
				JOINT Spine2
				{
					OFFSET 12.343206 0.000014 -0.000007
					CHANNELS 3 Zrotation Yrotation Xrotation
					JOINT Neck
					{
						OFFSET 25.832899 -0.000010 0.000002
						CHANNELS 3 Zrotation Yrotation Xrotation
						JOINT Head
						{
							OFFSET 11.766599 0.000010 -0.000001
							CHANNELS 3 Zrotation Yrotation Xrotation
							End Site
							{
								OFFSET 0.000000 0.000000 0.000000
							}
						}
					}
					JOINT LeftShoulder
					{
						OFFSET 19.745895 -1.480371 6.000111
						CHANNELS 3 Zrotation Yrotation Xrotation
						JOINT LeftArm
						{
							OFFSET 11.284124 -0.000010 -0.000007
							CHANNELS 3 Zrotation Yrotation Xrotation
							JOINT LeftForeArm
							{
								OFFSET 33.000061 0.000006 0.000028
								CHANNELS 3 Zrotation Yrotation Xrotation
								JOINT LeftHand
								{
									OFFSET 25.200001 0.000019 0.000008
									CHANNELS 3 Zrotation Yrotation Xrotation
									End Site
									{
										OFFSET 0.000000 0.000000 0.000000
									}
								}
							}
						}
					}
					JOINT RightShoulder
					{
						OFFSET 19.746101 -1.480375 -6.000078
						CHANNELS 3 Zrotation Yrotation Xrotation
						JOINT RightArm
						{
							OFFSET 11.284128 -0.000010 -0.000011
							CHANNELS 3 Zrotation Yrotation Xrotation
							JOINT RightForeArm
							{
								OFFSET 33.000095 0.000022 0.000002
								CHANNELS 3 Zrotation Yrotation Xrotation
								JOINT RightHand
								{
									OFFSET 25.199768 0.000129 0.000422
									CHANNELS 3 Zrotation Yrotation Xrotation
									End Site
									{
										OFFSET 0.000000 0.000000 0.000000
									}
								}
							}
						}
					}
				}
			}
		}
	}
}
MOTION
Frames: 11
Frame Time: 0.033333
18.335561 0.000000 526.486535 180.000000 -36.127423 180.000000 -5.687901 90.178337 0.591591 80.597204 -0.272248 -177.041027 148.097038 4.171710 178.326486 -15.378499 1.419818 -3.889559 66.616385 2.686843 -0.364318 21.454553 0.003097 0.000002 174.603063 -5.721889 -175.925524 -29.732018 -2.040896 -1.552189 89.911955 0.279819 -4.879100 21.454558 -0.003116 -0.000018 6.631902 -0.294765 0.836337 3.246540 -0.612551 1.664236 2.928586 -0.602345 1.667903 1.256591 8.497952 6.515949 -21.293593 -11.661891 13.283067 -154.810172 -81.184475 -27.085305 -6.999375 63.658067 44.208464 -26.833829 -12.118890 0.987282 14.426422 -7.203458 -16.795749 170.719267 74.085279 -8.136380 -4.078093 -60.439299 -17.310575 -32.071525 9.434494 -0.936526 7.607737 3.944763 -5.488459 
16.488932 0.000000 527.954971 180.000000 -35.042335 180.000000 -5.554506 90.672310 0.432445 80.446368 -0.275787 -177.381361 149.138055 3.510500 174.765703 -16.508154 1.544344 -2.598589 68.747650 2.080040 0.569873 21.454557 0.003091 0.000000 172.580903 -4.222101 -174.077575 -35.055205 -1.748181 -3.411513 84.607527 1.390843 -4.611485 21.454555 -0.003105 -0.000018 6.633011 -0.425447 0.832167 3.246981 -0.873724 1.652310 2.928993 -0.863602 1.657556 1.042767 8.688717 5.112607 -20.863508 -10.434108 11.339010 -155.869876 -81.474765 -26.005132 -5.902123 64.112814 45.247490 -26.281274 -11.737372 0.953510 14.174694 -6.975714 -16.630713 170.667494 74.571609 -8.172503 -3.129000 -60.177361 -17.026297 -30.151932 8.183070 -0.816198 7.775767 3.453589 -7.289386 
14.635823 0.000000 529.411234 180.000000 -34.016059 180.000000 -5.394861 90.962463 0.186548 80.494106 -0.490575 -178.312449 150.107805 2.986105 172.568677 -18.317920 1.530148 -2.412897 71.148742 2.114262 1.161986 21.454553 0.003088 -0.000000 169.745022 -1.617291 -171.820662 -41.937232 -1.756988 -6.503180 78.480390 4.253056 -1.246347 21.454558 -0.003104 -0.000018 6.625937 -0.561992 0.801127 3.231260 -1.145824 1.586578 2.913243 -1.136081 1.593474 1.362076 8.868710 3.957932 -20.270490 -9.246060 9.621768 -156.444909 -81.648915 -25.418863 -4.432522 64.516806 46.503715 -26.299560 -11.630711 0.946919 13.815009 -7.013534 -16.029032 169.376739 75.249294 -9.468796 -1.577932 -59.349071 -21.493133 -30.199920 8.876858 -0.862840 8.082492 1.797328 -8.222174 
12.764301 0.000000 530.842552 180.000000 -33.042914 180.000000 -5.218566 91.037308 -0.141217 80.891193 -1.222580 -179.501124 151.488432 3.096803 171.226381 -20.062479 1.453209 -3.072593 73.603266 2.641799 1.509317 21.454555 0.003095 -0.000001 166.571580 1.603900 -170.416020 -49.878331 -2.301013 -9.130084 73.695924 7.567771 3.189265 21.454560 -0.003111 -0.000016 6.656115 -0.794446 0.677885 3.290346 -1.607593 1.333403 2.972212 -1.599371 1.343090 2.022518 9.040105 3.042659 -19.497671 -8.130410 8.148866 -156.921342 -81.752781 -24.934210 -3.147507 64.643014 47.665117 -26.689412 -11.804111 0.964554 13.324369 -6.972226 -15.810850 167.917851 75.865022 -10.936203 -0.644470 -58.247443 -24.444142 -31.542029 9.505335 -0.930436 8.002263 -0.362657 -11.125929 
10.862405 0.000000 532.230016 180.000000 -32.110995 180.000000 -5.137039 90.967087 -0.436488 81.506698 -2.322772 179.246024 153.118115 3.606996 169.604102 -21.598696 1.488313 -3.617167 75.979318 2.960075 1.489949 21.454553 0.003100 0.000001 163.111543 4.394102 -170.481098 -58.113339 -3.338150 -9.803539 71.527872 9.727354 7.660043 21.454560 -0.003111 -0.000018 6.729037 -1.117267 0.489115 3.436577 -2.248406 0.945492 3.118272 -2.242518 0.959060 2.654175 9.285054 2.264222 -18.806533 -7.052041 6.869836 -156.815105 -81.700025 -25.042827 -3.668905 64.156199 47.797698 -27.086790 -11.864384 0.975124 13.176415 -7.215248 -16.108880 167.541931 76.030428 -11.313605 -0.397867 -57.092445 -24.669129 -33.848864 9.890143 -1.003955 7.615868 -1.700991 -14.651895 
8.920946 0.000000 533.560047 180.000000 -31.211495 180.000000 -5.163245 90.887741 -0.568633 82.085779 -3.057835 178.107323 154.590185 3.818804 168.455059 -23.179890 1.468215 -4.280582 78.194232 3.280795 1.161686 21.454550 0.003093 0.000001 159.559680 5.811599 -172.485253 -65.507306 -3.454697 -7.999213 71.823701 9.718001 11.487342 21.454557 -0.003110 -0.000017 6.801099 -1.345993 0.296505 3.583839 -2.700442 0.551904 3.265387 -2.696924 0.568217 3.168258 9.471461 1.515081 -18.167677 -5.954206 5.627570 -157.399401 -81.629285 -24.452029 -6.526767 63.182207 46.277769 -26.986643 -11.454909 0.946960 13.470555 -7.722278 -16.563921 168.570544 75.769324 -10.273230 -0.406565 -56.171384 -23.355460 -36.600364 10.535334 -1.108783 6.879460 -1.402252 -16.418660 
6.942458 0.000000 534.835557 180.000000 -30.346444 180.000000 -5.135427 91.031723 -0.582388 82.569739 -2.789892 177.238830 156.252079 3.156295 167.351943 -24.338785 1.508787 -4.552346 80.081782 3.315059 0.705714 21.454551 0.003090 -0.000001 156.354218 5.432405 -174.240257 -70.664304 -2.927400 -2.965873 74.005803 6.082701 12.369233 21.454557 -0.003108 -0.000016 6.833893 -1.320256 0.110494 3.653827 -2.643341 0.179847 3.335357 -2.642070 0.195820 3.919586 9.946523 0.761731 -17.635181 -5.283133 4.590721 -159.054847 -81.849483 -22.771104 -10.565321 62.276722 43.523243 -26.199590 -10.800211 0.891543 13.348918 -7.944911 -16.536289 168.776324 75.660669 -10.067100 0.108996 -56.317102 -20.960274 -39.283594 11.109271 -1.212441 5.544568 1.078075 -15.663497 
4.918750 0.000000 536.044581 180.000000 -29.520494 180.000000 -5.080644 91.263924 -0.520408 83.018759 -2.069273 176.836769 158.106694 2.228304 166.382261 -25.076444 1.594493 -4.634882 81.686426 3.235615 0.240952 21.454555 0.003085 0.000000 153.558266 4.395292 -174.695311 -73.040588 -2.850581 3.055224 74.415621 1.766355 12.692149 21.454565 -0.003108 -0.000017 6.855130 -1.155346 -0.141659 3.701372 -2.305680 -0.319778 3.382995 -2.307431 -0.305842 4.886346 10.342029 -0.108403 -17.323894 -4.400859 3.331275 -162.304050 -82.297906 -19.474949 -14.481941 61.214799 40.862628 -25.604778 -10.455060 0.859636 13.223465 -7.973342 -16.313249 168.557266 75.875793 -10.282801 0.706252 -57.237941 -19.027150 -41.760852 11.608389 -1.310462 3.935409 4.636460 -11.755170 
2.840804 0.000000 537.183702 180.000000 -28.723561 180.000000 -5.050478 91.431389 -0.421922 83.425217 -1.420170 176.939485 159.871970 1.366501 165.737545 -25.870216 1.547511 -4.471050 83.119823 3.004078 -0.220607 21.454553 0.003096 0.000001 151.099426 3.627001 -174.158677 -73.013998 -3.152169 7.387626 74.584156 -2.000156 10.650340 21.454565 -0.003109 -0.000017 6.890161 -0.978386 -0.478124 3.776361 -1.940902 -0.987664 3.458110 -1.946694 -0.975922 5.292955 10.866813 -1.074733 -16.740915 -3.809248 2.140377 -166.434799 -82.980180 -15.290524 -17.662200 60.037295 38.764032 -25.768130 -10.946310 0.894079 12.584937 -7.756003 -14.740008 169.354226 76.291622 -9.453716 1.086979 -58.500051 -17.735503 -44.334522 12.140617 -1.417493 2.897870 7.978323 -7.045118 
0.705839 0.000000 538.258991 180.000000 -27.936274 180.000000 -5.078123 91.424911 -0.342043 83.646860 -1.223305 177.256707 161.273334 0.941298 165.200583 -26.889041 1.444756 -4.402752 84.513544 2.850116 -0.694086 21.454553 0.003095 0.000002 148.821394 3.583892 -173.488649 -71.024385 -3.424207 9.485545 76.467424 -3.965586 9.622270 21.454558 -0.003108 -0.000018 6.889346 -0.880546 -0.808023 3.778698 -1.734636 -1.644200 3.460583 -1.744394 -1.633693 5.452031 11.528919 -1.973873 -16.449621 -3.514468 1.188215 -170.973364 -83.697118 -10.703599 -20.132524 58.557602 37.031165 -26.828724 -11.976198 0.977997 11.684461 -7.687676 -13.319202 170.419654 76.501199 -8.358799 2.186382 -59.803108 -16.507143 -47.288682 12.478862 -1.527537 2.380163 8.978668 -3.843779 
-1.498296 0.000000 539.270486 180.000000 -27.143155 180.000000 -5.102675 91.342583 -0.312421 83.774270 -1.175269 177.551745 162.711485 0.660202 164.472991 -27.703269 1.417135 -4.226796 85.920139 2.626553 -1.205147 21.454557 0.003088 0.000000 146.767870 3.819501 -172.928669 -67.343719 -3.469185 9.746955 77.874791 -4.313931 9.478746 21.454558 -0.003108 -0.000017 6.874518 -0.798448 -1.061576 3.751190 -1.562554 -2.148345 3.433208 -1.575360 -2.138874 5.291680 11.918858 -2.696399 -16.186495 -3.214497 0.407751 -175.650554 -84.340569 -5.986416 -22.283907 56.902709 35.162538 -28.545295 -13.380408 1.098411 10.935482 -7.371939 -12.354280 170.818687 76.634907 -7.947039 3.987023 -61.103480 -15.625975 -50.009737 12.616579 -1.622006 1.663669 8.572495 -3.284941 
